ffmpeg version 4.4.2-0ubuntu0.22.04.1 Copyright (c) 2000-2021 the FFmpeg developers
  built with gcc 11 (Ubuntu 11.2.0-19ubuntu1)
  configuration: --prefix=/usr --extra-version=0ubuntu0.22.04.1 --toolchain=hardened --libdir=/usr/lib/x86_64-linux-gnu --incdir=/usr/include/x86_64-linux-gnu --arch=amd64 --enable-gpl --disable-stripping --enable-gnutls --enable-ladspa --enable-libaom --enable-libass --enable-libbluray --enable-libbs2b --enable-libcaca --enable-libcdio --enable-libcodec2 --enable-libdav1d --enable-libflite --enable-libfontconfig --enable-libfreetype --enable-libfribidi --enable-libgme --enable-libgsm --enable-libjack --enable-libmp3lame --enable-libmysofa --enable-libopenjpeg --enable-libopenmpt --enable-libopus --enable-libpulse --enable-librabbitmq --enable-librubberband --enable-libshine --enable-libsnappy --enable-libsoxr --enable-libspeex --enable-libsrt --enable-libssh --enable-libtheora --enable-libtwolame --enable-libvidstab --enable-libvorbis --enable-libvpx --enable-libwebp --enable-libx265 --enable-libxml2 --enable-libxvid --enable-libzimg --enable-libzmq --enable-libzvbi --enable-lv2 --enable-omx --enable-openal --enable-opencl --enable-opengl --enable-sdl2 --enable-pocketsphinx --enable-librsvg --enable-libmfx --enable-libdc1394 --enable-libdrm --enable-libiec61883 --enable-chromaprint --enable-frei0r --enable-libx264 --enable-shared
  libavutil      56. 70.100 / 56. 70.100
  libavcodec     58.134.100 / 58.134.100
  libavformat    58. 76.100 / 58. 76.100
  libavdevice    58. 13.100 / 58. 13.100
  libavfilter     7.110.100 /  7.110.100
  libswscale      5.  9.100 /  5.  9.100
  libswresample   3.  9.100 /  3.  9.100
  libpostproc    55.  9.100 / 55.  9.100
Hyper fast Audio and Video encoder
frame=    1 fps=0.0 q=6.2 size=      85kB time=00:00:00.00 bitrate=697624.0kbits/s speed=0.0589x    
frame=   50 fps=0.0 q=31.0 size=     644kB time=00:00:01.67 bitrate=3155.1kbits/s speed=3.22x    
frame=  106 fps=104 q=31.0 size=    1146kB time=00:00:03.52 bitrate=2660.9kbits/s speed=3.45x    
frame=  163 fps=107 q=31.0 size=    1632kB time=00:00:05.43 bitrate=2460.4kbits/s speed=3.55x    
frame=  217 fps=106 q=24.8 size=    2165kB time=00:00:07.23 bitrate=2450.2kbits/s speed=3.55x    
frame=  263 fps=103 q=31.0 size=    2571kB time=00:00:08.77 bitrate=2399.4kbits/s speed=3.44x    
frame=  309 fps=101 q=31.0 size=    2955kB time=00:00:10.31 bitrate=2346.2kbits/s speed=3.38x    
frame=  357 fps=100 q=31.0 size=    3483kB time=00:00:11.91 bitrate=2395.1kbits/s speed=3.35x    
frame=  403 fps= 99 q=31.0 size=    3940kB time=00:00:13.45 bitrate=2398.8kbits/s speed=3.31x    
frame=  446 fps= 98 q=31.0 size=    4327kB time=00:00:14.89 bitrate=2380.3kbits/s speed=3.26x    
frame=  500 fps= 98 q=31.0 size=    4818kB time=00:00:16.66 bitrate=2368.2kbits/s speed=3.28x    
frame=  553 fps= 99 q=31.0 size=    5242kB time=00:00:18.44 bitrate=2328.4kbits/s speed= 3.3x    
frame=  600 fps= 99 q=31.0 size=    5647kB time=00:00:20.01 bitrate=2311.5kbits/s speed=3.29x    
frame=  649 fps= 98 q=31.0 size=    6061kB time=00:00:21.63 bitrate=2295.5kbits/s speed=3.28x    
frame=  702 fps= 99 q=24.8 size=    6550kB time=00:00:23.43 bitrate=2289.9kbits/s speed= 3.3x    
frame=  749 fps= 98 q=31.0 size=    6915kB time=00:00:24.97 bitrate=2268.4kbits/s speed=3.28x    
frame=  789 fps= 97 q=31.0 size=    7308kB time=00:00:26.33 bitrate=2273.7kbits/s speed=3.25x    
frame=  828 fps= 96 q=31.0 size=    7614kB time=00:00:27.63 bitrate=2256.8kbits/s speed=3.21x    
frame=  869 fps= 95 q=31.0 size=    7916kB time=00:00:28.99 bitrate=2236.3kbits/s speed=3.17x    
frame=  911 fps= 94 q=31.0 size=    8234kB time=00:00:30.38 bitrate=2220.2kbits/s speed=3.15x    
frame=  957 fps= 94 q=31.0 size=    8575kB time=00:00:31.92 bitrate=2200.4kbits/s speed=3.15x    
frame=  999 fps= 94 q=31.0 size=    8875kB time=00:00:33.30 bitrate=2182.9kbits/s speed=3.13x    
frame= 1046 fps= 94 q=31.0 size=    9266kB time=00:00:34.90 bitrate=2175.0kbits/s speed=3.13x    
frame= 1094 fps= 94 q=31.0 size=    9646kB time=00:00:36.49 bitrate=2165.3kbits/s speed=3.13x    
frame= 1143 fps= 94 q=31.0 size=   10016kB time=00:00:38.11 bitrate=2152.7kbits/s speed=3.13x    
frame= 1191 fps= 94 q=31.0 size=   10468kB time=00:00:39.73 bitrate=2158.3kbits/s speed=3.14x    
frame= 1240 fps= 94 q=31.0 size=   10936kB time=00:00:41.37 bitrate=2165.0kbits/s speed=3.14x    
frame= 1290 fps= 94 q=24.8 size=   11449kB time=00:00:43.05 bitrate=2178.6kbits/s speed=3.15x    
frame= 1340 fps= 95 q=31.0 size=   11905kB time=00:00:44.69 bitrate=2181.9kbits/s speed=3.15x    
frame= 1394 fps= 95 q=31.0 size=   12413kB time=00:00:46.49 bitrate=2186.8kbits/s speed=3.17x    
frame= 1442 fps= 95 q=31.0 size=   12818kB time=00:00:48.11 bitrate=2182.2kbits/s speed=3.17x    
frame= 1489 fps= 95 q=31.0 size=   13299kB time=00:00:49.66 bitrate=2193.9kbits/s speed=3.17x    
frame= 1534 fps= 95 q=31.0 size=   13713kB time=00:00:51.17 bitrate=2195.2kbits/s speed=3.16x    
frame= 1588 fps= 95 q=31.0 size=   14136kB time=00:00:52.97 bitrate=2186.0kbits/s speed=3.17x    
frame= 1642 fps= 95 q=31.0 size=   14617kB time=00:00:54.78 bitrate=2185.8kbits/s speed=3.19x    
frame= 1685 fps= 95 q=31.0 size=   15016kB time=00:00:56.21 bitrate=2188.2kbits/s speed=3.18x    
frame= 1730 fps= 95 q=31.0 size=   15470kB time=00:00:57.73 bitrate=2195.1kbits/s speed=3.17x    
frame= 1776 fps= 95 q=31.0 size=   15948kB time=00:00:59.24 bitrate=2205.0kbits/s speed=3.17x    
frame= 1825 fps= 95 q=31.0 size=   16334kB time=00:01:00.86 bitrate=2198.4kbits/s speed=3.17x    
frame= 1877 fps= 95 q=31.0 size=   16769kB time=00:01:02.59 bitrate=2194.5kbits/s speed=3.18x    
frame= 1921 fps= 95 q=31.0 size=   17262kB time=00:01:04.07 bitrate=2206.9kbits/s speed=3.17x    
frame= 1957 fps= 94 q=31.0 size=   17603kB time=00:01:05.28 bitrate=2208.9kbits/s speed=3.15x    
frame= 1997 fps= 94 q=31.0 size=   17935kB time=00:01:06.60 bitrate=2206.1kbits/s speed=3.14x    
frame= 2033 fps= 94 q=31.0 size=   18318kB time=00:01:07.81 bitrate=2212.8kbits/s speed=3.12x    
frame= 2074 fps= 93 q=24.8 size=   18685kB time=00:01:09.19 bitrate=2212.0kbits/s speed=3.11x    
frame= 2114 fps= 93 q=31.0 size=   18946kB time=00:01:10.53 bitrate=2200.5kbits/s speed= 3.1x    
frame= 2162 fps= 93 q=31.0 size=   19342kB time=00:01:12.15 bitrate=2196.1kbits/s speed= 3.1x    
frame= 2210 fps= 93 q=31.0 size=   19825kB time=00:01:13.74 bitrate=2202.3kbits/s speed=3.11x    
frame= 2259 fps= 93 q=31.0 size=   20284kB time=00:01:15.36 bitrate=2204.9kbits/s speed=3.11x    
frame= 2310 fps= 93 q=24.8 size=   20736kB time=00:01:17.06 bitrate=2204.3kbits/s speed=3.11x    
frame= 2359 fps= 93 q=31.0 size=   21134kB time=00:01:18.70 bitrate=2199.6kbits/s speed=3.12x    
frame= 2406 fps= 93 q=24.8 size=   21652kB time=00:01:20.27 bitrate=2209.6kbits/s speed=3.11x    
frame= 2462 fps= 94 q=31.0 size=   22098kB time=00:01:22.15 bitrate=2203.4kbits/s speed=3.13x    
frame= 2516 fps= 94 q=31.0 size=   22609kB time=00:01:23.93 bitrate=2206.7kbits/s speed=3.13x    
frame= 2563 fps= 94 q=31.0 size=   22956kB time=00:01:25.52 bitrate=2198.9kbits/s speed=3.14x    
frame= 2616 fps= 94 q=31.0 size=   23323kB time=00:01:27.27 bitrate=2189.2kbits/s speed=3.14x    
frame= 2654 fps= 94 q=31.0 size=   23603kB time=00:01:28.55 bitrate=2183.5kbits/s speed=3.13x    
frame= 2695 fps= 94 q=31.0 size=   23925kB time=00:01:29.91 bitrate=2179.8kbits/s speed=3.12x    
frame= 2739 fps= 93 q=31.0 size=   24212kB time=00:01:31.40 bitrate=2170.0kbits/s speed=3.12x    
frame= 2788 fps= 94 q=31.0 size=   24585kB time=00:01:33.02 bitrate=2165.0kbits/s speed=3.12x    
frame= 2836 fps= 94 q=31.0 size=   24964kB time=00:01:34.61 bitrate=2161.4kbits/s speed=3.12x    
frame= 2884 fps= 94 q=31.0 size=   25369kB time=00:01:36.21 bitrate=2160.1kbits/s speed=3.12x    
frame= 2938 fps= 94 q=31.0 size=   25764kB time=00:01:38.03 bitrate=2152.8kbits/s speed=3.13x    
frame= 2988 fps= 94 q=31.0 size=   26152kB time=00:01:39.71 bitrate=2148.6kbits/s speed=3.13x    
frame= 3033 fps= 94 q=24.8 size=   26601kB time=00:01:41.19 bitrate=2153.3kbits/s speed=3.13x    
frame= 3089 fps= 94 q=31.0 size=   27073kB time=00:01:43.08 bitrate=2151.6kbits/s speed=3.14x    
frame= 3145 fps= 94 q=31.0 size=   27578kB time=00:01:44.96 bitrate=2152.4kbits/s speed=3.15x    
frame= 3182 fps= 94 q=31.0 size=   27905kB time=00:01:46.16 bitrate=2153.2kbits/s speed=3.14x    
frame= 3221 fps= 94 q=31.0 size=   28465kB time=00:01:47.46 bitrate=2169.8kbits/s speed=3.13x    
frame= 3268 fps= 94 q=31.0 size=   28919kB time=00:01:49.03 bitrate=2172.7kbits/s speed=3.13x    
frame= 3313 fps= 94 q=31.0 size=   29345kB time=00:01:50.55 bitrate=2174.5kbits/s speed=3.13x    
frame= 3362 fps= 94 q=31.0 size=   29871kB time=00:01:52.17 bitrate=2181.5kbits/s speed=3.13x    
frame= 3408 fps= 94 q=31.0 size=   30536kB time=00:01:53.71 bitrate=2199.9kbits/s speed=3.13x    
frame= 3446 fps= 93 q=31.0 size=   30865kB time=00:01:54.99 bitrate=2198.8kbits/s speed=3.12x    
frame= 3481 fps= 93 q=31.0 size=   31154kB time=00:01:56.14 bitrate=2197.4kbits/s speed=3.11x    
frame= 3524 fps= 93 q=24.8 size=   31513kB time=00:01:57.55 bitrate=2196.1kbits/s speed= 3.1x    
frame= 3573 fps= 93 q=31.0 size=   31844kB time=00:01:59.19 bitrate=2188.5kbits/s speed= 3.1x    
frame= 3624 fps= 93 q=31.0 size=   32236kB time=00:02:00.89 bitrate=2184.3kbits/s speed=3.11x    
frame= 3684 fps= 94 q=31.0 size=   32666kB time=00:02:02.93 bitrate=2176.8kbits/s speed=3.12x    
frame= 3739 fps= 94 q=31.0 size=   33058kB time=00:02:04.76 bitrate=2170.6kbits/s speed=3.13x    
frame= 3776 fps= 93 q=31.0 size=   33495kB time=00:02:05.99 bitrate=2177.9kbits/s speed=3.12x    
frame= 3816 fps= 93 q=31.0 size=   34130kB time=00:02:07.32 bitrate=2196.0kbits/s speed=3.11x    
frame= 3866 fps= 93 q=31.0 size=   34595kB time=00:02:08.99 bitrate=2197.0kbits/s speed=3.11x    
frame= 3914 fps= 93 q=31.0 size=   35016kB time=00:02:10.58 bitrate=2196.6kbits/s speed=3.11x    
frame= 3953 fps= 93 q=31.0 size=   35319kB time=00:02:11.89 bitrate=2193.7kbits/s speed=3.11x    
frame= 4000 fps= 93 q=31.0 size=   35711kB time=00:02:13.46 bitrate=2192.0kbits/s speed=3.11x    
frame= 4040 fps= 93 q=31.0 size=   36217kB time=00:02:14.79 bitrate=2201.1kbits/s speed= 3.1x    
frame= 4087 fps= 93 q=31.0 size=   36630kB time=00:02:16.36 bitrate=2200.6kbits/s speed= 3.1x    
frame= 4138 fps= 93 q=31.0 size=   37083kB time=00:02:18.05 bitrate=2200.4kbits/s speed=3.11x    
frame= 4189 fps= 93 q=31.0 size=   37563kB time=00:02:19.75 bitrate=2201.8kbits/s speed=3.11x    
frame= 4245 fps= 93 q=31.0 size=   37948kB time=00:02:21.63 bitrate=2194.8kbits/s speed=3.12x    
frame= 4291 fps= 93 q=31.0 size=   38299kB time=00:02:23.17 bitrate=2191.3kbits/s speed=3.12x    
frame= 4333 fps= 93 q=31.0 size=   38648kB time=00:02:24.56 bitrate=2190.1kbits/s speed=3.11x    
frame= 4392 fps= 94 q=31.0 size=   39164kB time=00:02:26.54 bitrate=2189.3kbits/s speed=3.12x    
